#!OML:ASF E:\pregnant2\Project 1\Capture day 1\Session 1\pregnant2.ASF
:FULLY-SPECIFIED
:DEGREES
1164
root 4.64266 19.1877 -5.94377 26.3227 -1.16169 0.966202
lowerback -2.94551 3.63129 3.05804
upperback -15.0235 4.52961 -6.24757
thorax -14.1384 1.31789 -9.13028
lowerneck -5.65882 -2.7413 0.185456
upperneck 53.2799 -4.17067 -0.120584
head 24.3419 -1.47947 -0.910443
rclavicle -1.95803e-014 -2.54444e-014
rhumerus -62.1869 -11.1293 -72.9655
rradius 40.7327
rwrist 5.56137
rhand -14.2532 -15.585
rfingers 7.12502
rthumb 11.8849 -45.2277
lclavicle -1.95803e-014 -2.54444e-014
lhumerus -56.2867 -10.6342 78.8523
lradius 35.5115
lwrist -0.208668
lhand -8.17679 27.2105
lfingers 7.12502
lthumb 17.7387 56.4214
rfemur -48.6384 2.79867 24.8104
rtibia 45.0173
rfoot -21.868 -10.4994
rtoes 19.0673
lfemur -69.0921 4.63732 -27.1179
ltibia 105.91
lfoot -14.6395 7.65679
ltoes -20.1117
1165
root 4.63359 19.2032 -5.87906 26.311 -1.13634 0.991853
lowerback -2.88508 3.59553 3.00375
upperback -14.9293 4.47961 -6.23835
thorax -14.0707 1.30697 -9.08038
lowerneck -5.66421 -2.72197 0.203609
upperneck 53.277 -4.1702 -0.0681675
head 24.3444 -1.47014 -0.883379
rclavicle 1.98785e-016 6.36111e-015
rhumerus -62.1083 -10.7128 -73.6293
rradius 41.5205
rwrist 5.15671
rhand -14.23 -15.7087
rfingers 7.12502
rthumb 11.9073 -45.3501
lclavicle 1.98785e-016 6.36111e-015
lhumerus -56.3882 -10.7442 79.161
lradius 35.2096
lwrist -1.58659
lhand -7.22957 26.6239
lfingers 7.12502
lthumb 18.65 55.7499
rfemur -48.2143 3.08174 24.6742
rtibia 44.7839
rfoot -22.0844 -10.8344
rtoes 18.7262
lfemur -69.3225 4.21856 -27.1813
ltibia 104.787
lfoot -14.7654 7.81261
ltoes -20.3748
1166
root 4.62628 19.2206 -5.81301 26.3135 -1.10784 1.00509
lowerback -2.84332 3.56446 2.97567
upperback -14.8442 4.43729 -6.22939
thorax -13.9998 1.29648 -9.04535
lowerneck -5.65731 -2.70934 0.19307
upperneck 53.2829 -4.17934 -0.00265612
head 24.3542 -1.46914 -0.844851
rclavicle -6.26172e-014 2.70347e-014
rhumerus -62.0638 -10.2466 -74.3255
rradius 42.3211
rwrist 4.82709
rhand -14.1536 -15.7424
rfingers 7.12502
rthumb 11.981 -45.3796
lclavicle -6.26172e-014 2.70347e-014
lhumerus -56.4853 -10.8413 79.4221
lradius 34.95
lwrist -3.06398
lhand -6.286 25.9247
lfingers 7.12502
lthumb 19.5574 54.961
rfemur -47.7787 3.33004 24.559
rtibia 44.5041
rfoot -22.2821 -11.1166
rtoes 18.4061
lfemur -69.4869 3.79355 -27.2205
ltibia 103.47
lfoot -14.8291 8.10422
ltoes -20.4314
1167
root 4.62111 19.2405 -5.74388 26.3006 -1.09014 1.01966
lowerback -2.81326 3.54121 2.96261
upperback -14.7518 4.406 -6.22555
thorax -13.9094 1.29042 -9.02331
lowerneck -5.65311 -2.70385 0.14938
upperneck 53.2929 -4.20023 0.0805997
head 24.3735 -1.47762 -0.791945
rclavicle -9.34288e-015 9.54166e-015
rhumerus -62.042 -9.74365 -75.0401
rradius 43.1365
rwrist 4.57668
rhand -14.0317 -15.6995
rfingers 7.12502
rthumb 12.0986 -45.3298
lclavicle -9.34288e-015 9.54166e-015
lhumerus -56.5715 -10.9169 79.6277
lradius 34.7536
lwrist -4.52847
lhand -5.39106 25.1766
lfingers 7.12502
lthumb 20.4176 54.1232
rfemur -47.3003 3.54172 24.4462
rtibia 44.1923
rfoot -22.5142 -11.3307
rtoes 18.2332
lfemur -69.5313 3.37319 -27.2523
ltibia 101.947
lfoot -14.853 8.51384
ltoes -20.3623
1168
root 4.61712 19.2617 -5.67396 26.3012 -1.05966 1.059
lowerback -2.79539 3.51306 2.93865
upperback -14.6717 4.36645 -6.22964
thorax -13.8286 1.28012 -9.00406
lowerneck -5.63288 -2.70447 0.0825408
upperneck 53.3092 -4.22818 0.171255
head 24.395 -1.49306 -0.731245
rclavicle 5.27773e-014 -5.725e-014
rhumerus -62.0638 -9.20365 -75.7629
rradius 43.9676
rwrist 4.41029
rhand -13.8702 -15.5798
rfingers 7.12502
rthumb 12.2543 -45.2008
lclavicle 5.27773e-014 -5.725e-014
lhumerus -56.6539 -10.9616 79.7705
lradius 34.5986
lwrist -5.89424
lhand -4.60767 24.3927
lfingers 7.12502
lthumb 21.1703 53.2568
rfemur -46.832 3.71422 24.3154
rtibia 43.8678
rfoot -22.7709 -11.5159
rtoes 18.1368
lfemur -69.5054 2.92372 -27.2833
ltibia 100.226
lfoot -14.8356 9.00142
ltoes -20.2183
1169
root 4.6144 19.2837 -5.60288 26.3096 -1.02552 1.123
lowerback -2.78555 3.48309 2.90262
upperback -14.6 4.3227 -6.2438
thorax -13.7544 1.2678 -8.98959
lowerneck -5.6116 -2.71011 -0.00344299
upperneck 53.3283 -4.26341 0.270302
head 24.4214 -1.51443 -0.663293
rclavicle -3.73715e-014 -4.77083e-015
rhumerus -62.1253 -8.63523 -76.4941
rradius 44.8039
rwrist 4.31179
rhand -13.6924 -15.4097
rfingers 7.12502
rthumb 12.4257 -45.0204
lclavicle -3.73715e-014 -4.77083e-015
lhumerus -56.7324 -10.9804 79.8615
lradius 34.4929
lwrist -7.08529
lhand -3.99288 23.6742
lfingers 7.12502
lthumb 21.7608 52.471
rfemur -46.3772 3.86516 24.1588
rtibia 43.5512
rfoot -23.065 -11.6818
rtoes 18.1471
lfemur -69.3988 2.45283 -27.3144
ltibia 98.3122
lfoot -14.8163 9.53718
ltoes -20.0679
1170
root 4.61252 19.3052 -5.53191 26.3438 -0.978569 1.21714
lowerback -2.78954 3.44742 2.8475
upperback -14.5477 4.26884 -6.26873
thorax -13.6982 1.25046 -8.9771
lowerneck -5.58289 -2.71835 -0.0893299
upperneck 53.3534 -4.29821 0.360244
head 24.4509 -1.53659 -0.600466
rclavicle 4.65156e-014 -4.29375e-014
rhumerus -62.249 -8.0366 -77.2331
rradius 45.6659
rwrist 4.25982
rhand -13.4946 -15.2128
rfingers 7.12502
rthumb 12.6164 -44.8118
lclavicle 4.65156e-014 -4.29375e-014
lhumerus -56.8261 -10.9885 79.9212
lradius 34.4596
lwrist -7.98869
lhand -3.56882 23.1157
lfingers 7.12502
lthumb 22.168 51.8647
rfemur -45.9721 4.0007 23.9709
rtibia 43.2677
rfoot -23.3928 -11.849
rtoes 18.2215
lfemur -69.2438 1.95174 -27.3475
ltibia 96.2229
lfoot -14.8167 10.0972
ltoes -19.9654
1171
root 4.61135 19.325 -5.46183 26.4174 -0.918103 1.33786
lowerback -2.80942 3.40635 2.7743
upperback -14.5166 4.2055 -6.30293
thorax -13.6609 1.22837 -8.96544
lowerneck -5.56448 -2.72767 -0.169653
upperneck 53.3824 -4.32873 0.434951
head 24.4884 -1.55726 -0.547077
rclavicle -2.79292e-014 3.65764e-014
rhumerus -62.4151 -7.42041 -77.9759
rradius 46.5261
rwrist 4.22014
rhand -13.3256 -14.9547
rfingers 7.12502
rthumb 12.7793 -44.5436
lclavicle -2.79292e-014 3.65764e-014
lhumerus -56.928 -10.9887 79.9617
lradius 34.4981
lwrist -8.54312
lhand -3.33639 22.7789
lfingers 7.12502
lthumb 22.3911 51.5012
rfemur -45.6404 4.1308 23.7537
rtibia 43.0289
rfoot -23.7404 -12.0342
rtoes 18.3107
lfemur -69.0654 1.4202 -27.3775
ltibia 93.9701
lfoot -14.8434 10.663
ltoes -19.9079
1172
root 4.611 19.3426 -5.39233 26.528 -0.854246 1.47498
lowerback -2.84901 3.36472 2.69176
upperback -14.501 4.13998 -6.34523
thorax -13.6311 1.20495 -8.95762
lowerneck -5.55864 -2.7388 -0.25181
upperneck 53.4064 -4.35783 0.502139
head 24.5254 -1.57846 -0.497597
rclavicle 3.24019e-014 -1.11319e-014
rhumerus -62.6104 -6.79334 -78.7238
rradius 47.3799
rwrist 4.16084
rhand -13.1881 -14.6725
rfingers 7.12502
rthumb 12.9119 -44.2531
lclavicle 3.24019e-014 -1.11319e-014
lhumerus -57.0333 -10.9985 80.0014
lradius 34.6158
lwrist -8.69986
lhand -3.27837 22.6492
lfingers 7.12502
lthumb 22.4468 51.3648
rfemur -45.3781 4.2675 23.5148
rtibia 42.8398
rfoot -24.1076 -12.2373
rtoes 18.4277
lfemur -68.8625 0.871871 -27.3973
ltibia 91.5672
lfoot -14.8937 11.2258
ltoes -19.9015
1173
root 4.61175 19.358 -5.32246 26.6627 -0.803695 1.61947
lowerback -2.90614 3.32878 2.60751
upperback -14.4968 4.08149 -6.3937
thorax -13.6031 1.1844 -8.95602
lowerneck -5.56621 -2.75205 -0.34249
upperneck 53.4221 -4.38621 0.565878
head 24.5594 -1.60154 -0.448452
rclavicle -3.47873e-015 1.74931e-014
rhumerus -62.8298 -6.15818 -79.4739
rradius 48.2219
rwrist 4.05596
rhand -13.1013 -14.383
rfingers 7.12502
rthumb 12.9955 -43.9582
lclavicle -3.47873e-015 1.74931e-014
lhumerus -57.1428 -11.0165 80.0436
lradius 34.8151
lwrist -8.44204
lhand -3.35669 22.746
lfingers 7.12502
lthumb 22.3716 51.4706
rfemur -45.1607 4.42388 23.2576
rtibia 42.6869
rfoot -24.4872 -12.4539
rtoes 18.5619
lfemur -68.616 0.326995 -27.4064
ltibia 89.0191
lfoot -14.9895 11.7896
ltoes -19.9466
1174
root 4.61324 19.3713 -5.25294 26.8309 -0.766687 1.77
lowerback -2.98335 3.29767 2.51631
upperback -14.5059 4.02885 -6.44569
thorax -13.578 1.1669 -8.95448
lowerneck -5.58816 -2.76789 -0.441518
upperneck 53.4256 -4.41247 0.621933
head 24.5853 -1.6264 -0.401871
rclavicle 1.07344e-014 -4.29375e-014
rhumerus -63.0612 -5.52079 -80.2201
rradius 49.0362
rwrist 3.89702
rhand -13.077 -14.0541
rfingers 7.12502
rthumb 13.0189 -43.6279
lclavicle 1.07344e-014 -4.29375e-014
lhumerus -57.2389 -11.0389 80.0863
lradius 35.0629
lwrist -7.82533
lhand -3.55309 23.0045
lfingers 7.12502
lthumb 22.1831 51.7516
rfemur -44.9935 4.61268 22.9791
rtibia 42.5574
rfoot -24.854 -12.7032
rtoes 18.6339
lfemur -68.3448 -0.212615 -27.4033
ltibia 86.3359
lfoot -15.0932 12.3395
ltoes -19.9734
1175
root 4.61611 19.3838 -5.18147 26.9884 -0.767333 1.9154
lowerback -3.06731 3.28126 2.42749
upperback -14.5095 3.99664 -6.4989
thorax -13.538 1.16003 -8.95554
lowerneck -5.62737 -2.78588 -0.551108
upperneck 53.416 -4.43526 0.670589
head 24.6038 -1.65291 -0.357066
rclavicle -2.88238e-014 1.27222e-014
rhumerus -63.2908 -4.88835 -80.9485
rradius 49.8145
rwrist 3.7126
rhand -13.0741 -13.7312
rfingers 7.12502
rthumb 13.0218 -43.3048
lclavicle -2.88238e-014 1.27222e-014
lhumerus -57.3121 -11.0557 80.1198
lradius 35.3503
lwrist -6.92009
lhand -3.84741 23.3745
lfingers 7.12502
lthumb 21.9005 52.155
rfemur -44.8095 4.84549 22.684
rtibia 42.4306
rfoot -25.2253 -12.9661
rtoes 18.7286
lfemur -67.9827 -0.721392 -27.3898
ltibia 83.5181
lfoot -15.1992 12.8689
ltoes -19.8889
